# xmcd
#
# Track frame offsets:
# 150
# 15465
# 27749
# 43539
# 58184
# 74779
# 89210
# 108231
# 130507
# 148384
# 169366
# 184295
# 195485
# 211323
#
# Disc length: 3163 seconds
#
#
# Revision: 0
# Processed by: cddbd v1.5.1PL2 Copyright (c) Steve Scherf et al.
# Submitted via: FreeRIP 2.941 
#
DISCID=dc0c590e
DTITLE=Terceira Dimensão  - Terceira Dimensão vl 12
DYEAR=2004
DGENRE=Other
TTITLE0=Pode descer cerveja
TTITLE1=Sereia
TTITLE2=Josefino tá de carro novo
TTITLE3=Mariazinha foi...
TTITLE4=Tem que pegá e se cuidá
TTITLE5=Se quiser chorar, pode chorar
TTITLE6=Você tá boa ?
TTITLE7=Você é do jeitinho que eu pedi e Deus
TTITLE8=Seguirei o tei caminho
TTITLE9=Ela me ligou
TTITLE10=Minha belá
TTITLE11=Baila comigo
TTITLE12=Não soube te amar
TTITLE13=Canto de paz
EXTD=
EXTT0=
EXTT1=
EXTT2=
EXTT3=
EXTT4=
EXTT5=
EXTT6=
EXTT7=
EXTT8=
EXTT9=
EXTT10=
EXTT11=
EXTT12=
EXTT13=
PLAYORDER=
